HIERARCHY
ROOT pelvis
{
	OFFSET 0.000000 0.924753 -0.000000
	CHANNELS 6 Xposition Yposition Zposition Xrotation Yrotation Zrotation
	JOINT spine
	{
		OFFSET 0.000000 0.000000 0.000000
		CHANNELS 6 Xposition Yposition Zposition Xrotation Yrotation Zrotation
		JOINT spine.001
		{
			OFFSET 0.000000 0.276682 0.014500
			CHANNELS 3 Xrotation Yrotation Zrotation
			JOINT neck
			{
				OFFSET 0.000000 0.274997 -0.033765
				CHANNELS 6 Xposition Yposition Zposition Xrotation Yrotation Zrotation
				JOINT face
				{
					OFFSET 0.000000 0.215541 -0.003762
					CHANNELS 6 Xposition Yposition Zposition Xrotation Yrotation Zrotation
					End Site
					{
						OFFSET 0.000000 -0.008818 0.037497
					}
				}
			}
			JOINT shoulder.L
			{
				OFFSET 0.000000 0.274997 -0.033765
				CHANNELS 6 Xposition Yposition Zposition Yrotation Xrotation Zrotation
				JOINT upper_arm.L
				{
					OFFSET 0.180307 0.000000 0.000000
					CHANNELS 6 Xposition Yposition Zposition Xrotation Yrotation Zrotation
					JOINT forearm.L
					{
						OFFSET 0.298295 0.001098 -0.000132
						CHANNELS 6 Xposition Yposition Zposition Xrotation Yrotation Zrotation
						End Site
						{
							OFFSET 0.260481 -0.001511 0.004425
						}
					}
				}
			}
			JOINT shoulder.R
			{
				OFFSET 0.000000 0.274997 -0.033765
				CHANNELS 6 Xposition Yposition Zposition Yrotation Xrotation Zrotation
				JOINT upper_arm.R
				{
					OFFSET -0.180307 0.000000 0.000000
					CHANNELS 6 Xposition Yposition Zposition Xrotation Yrotation Zrotation
					JOINT forearm.R
					{
						OFFSET -0.295075 0.001098 -0.000132
						CHANNELS 6 Xposition Yposition Zposition Xrotation Yrotation Zrotation
						End Site
						{
							OFFSET -0.269439 -0.001512 0.004582
						}
					}
				}
			}
		}
	}
	JOINT pelvis.L
	{
		OFFSET 0.000000 0.000000 0.000000
		CHANNELS 6 Xposition Yposition Zposition Yrotation Xrotation Zrotation
		End Site
		{
			OFFSET 0.105933 0.000000 0.000000
		}
	}
	JOINT pelvis.R
	{
		OFFSET 0.000000 0.000000 0.000000
		CHANNELS 6 Xposition Yposition Zposition Yrotation Xrotation Zrotation
		End Site
		{
			OFFSET -0.105933 0.000000 0.000000
		}
	}
	JOINT thigh.L
	{
		OFFSET 0.105933 0.000000 0.000000
		CHANNELS 6 Xposition Yposition Zposition Xrotation Yrotation Zrotation
		JOINT shin.L
		{
			OFFSET 0.022250 -0.424548 0.000000
			CHANNELS 6 Xposition Yposition Zposition Xrotation Yrotation Zrotation
			JOINT foot.L
			{
				OFFSET 0.021374 -0.407838 0.000000
				CHANNELS 6 Xposition Yposition Zposition Xrotation Yrotation Zrotation
				End Site
				{
					OFFSET 0.018740 -0.080234 0.191071
				}
			}
		}
	}
	JOINT thigh.R
	{
		OFFSET -0.105933 0.000000 0.000000
		CHANNELS 6 Xposition Yposition Zposition Xrotation Yrotation Zrotation
		JOINT shin.R
		{
			OFFSET -0.022137 -0.422396 0.000000
			CHANNELS 6 Xposition Yposition Zposition Xrotation Yrotation Zrotation
			JOINT foot.R
			{
				OFFSET -0.022337 -0.426218 0.000000
				CHANNELS 6 Xposition Yposition Zposition Xrotation Yrotation Zrotation
				End Site
				{
					OFFSET -0.019568 -0.083780 0.199517
				}
			}
		}
	}
}
MOTION
Frames: 10
Frame Time: 0.041667
0.048006 -0.015122 0.042276 -0.000000 -0.319680 -0.000000 0.000000 -0.000000 0.000000 -8.122980 0.392561 -3.168315 10.016144 3.872699 -0.476215 -0.000000 0.274997 -0.033765 12.773309 16.814859 -3.526126 0.000000 0.215540 -0.003762 -2.362340 -0.000010 -0.000005 0.000000 0.274996 -0.033765 -0.047478 -0.000158 -0.386224 0.180307 -0.000000 0.000000 7.631503 10.728852 -71.449933 0.298295 0.001098 -0.000132 -21.948412 -40.289305 -57.004171 0.000000 0.274996 -0.033765 -0.054131 -0.000206 -0.440507 -0.180307 0.000000 0.000000 10.118732 -13.820336 72.925479 -0.295075 0.001098 -0.000132 -21.898824 39.906613 57.446843 0.000000 -0.000000 0.000000 -0.000062 -0.000002 -3.295403 0.000000 0.000000 0.000000 0.000000 -0.000000 -3.295403 0.105758 -0.006089 -0.000000 7.716426 0.105149 -4.440916 0.022250 -0.424548 0.000000 -1.074190 -0.077520 2.255528 0.021374 -0.407838 0.000000 -8.857466 13.416685 7.724761 -0.105758 0.006089 0.000000 5.903652 -0.397503 -1.697173 -0.022137 -0.422396 0.000000 2.820908 -0.212998 -2.634060 -0.022337 -0.426218 0.000000 -9.745334 -9.842100 -6.103589 
0.047984 -0.015262 0.041861 -0.000000 -0.206855 -0.000000 -0.000000 0.000000 0.000000 -8.062552 0.391520 -3.173593 10.015958 3.856159 -0.474217 0.000000 0.274997 -0.033765 12.682838 16.721184 -3.515651 0.000000 0.215540 -0.003762 -2.317077 -0.000011 0.000000 0.000000 0.274997 -0.033765 -0.046036 -0.000149 -0.375452 0.180307 0.000000 -0.000000 7.598744 10.675120 -71.490934 0.298295 0.001098 -0.000132 -21.959721 -40.290958 -57.027537 0.000000 0.274997 -0.033765 -0.052751 -0.000197 -0.429773 -0.180307 -0.000000 -0.000000 10.084312 -13.775171 72.919585 -0.295075 0.001098 -0.000132 -21.834079 39.855253 57.371076 0.000000 -0.000000 -0.000000 -0.000083 -0.000003 -3.280967 0.000000 0.000000 -0.000000 0.000000 -0.000000 -3.280967 0.105759 -0.006063 0.000000 7.668226 0.105585 -4.424566 0.022250 -0.424548 0.000000 -1.061094 -0.076500 2.247066 0.021374 -0.407838 0.000000 -8.807856 13.331407 7.669289 -0.105759 0.006063 0.000000 5.906392 -0.397249 -1.688714 -0.022137 -0.422396 0.000000 2.814567 -0.212191 -2.620818 -0.022337 -0.426218 0.000000 -9.717565 -9.937247 -6.146769 
0.047985 -0.015326 0.041483 -0.000000 -0.092905 -0.000000 -0.000000 0.000000 -0.000000 -8.005589 0.390207 -3.175958 10.015423 3.793753 -0.466511 0.000000 0.274997 -0.033765 12.603424 16.695549 -3.529786 -0.000000 0.215541 -0.003762 -2.274592 -0.000012 -0.000004 0.000000 0.274996 -0.033765 -0.045540 -0.000145 -0.371080 0.180307 -0.000000 -0.000000 7.581003 10.643960 -71.524033 0.298295 0.001098 -0.000132 -21.928872 -40.277800 -56.975871 0.000000 0.274996 -0.033765 -0.052250 -0.000194 -0.425432 -0.180307 0.000000 0.000000 10.056883 -13.738832 72.916347 -0.295075 0.001098 -0.000132 -21.799281 39.834917 57.320013 0.000000 -0.000000 -0.000000 -0.000032 -0.000001 -3.270280 0.000000 0.000000 -0.000000 0.000000 -0.000000 -3.270280 0.105761 -0.006043 0.000000 7.623754 0.105648 -4.414340 0.022250 -0.424548 0.000000 -1.051519 -0.075801 2.246519 0.021374 -0.407838 0.000000 -8.761594 13.243866 7.613600 -0.105761 0.006043 -0.000000 5.914104 -0.397368 -1.681036 -0.022137 -0.422396 0.000000 2.803706 -0.210978 -2.604866 -0.022337 -0.426218 0.000000 -9.688721 -10.035245 -6.191129 
0.047998 -0.015333 0.041162 -0.000000 0.005954 -0.000000 -0.000000 0.000000 0.000000 -7.960748 0.389191 -3.177967 10.014757 3.709588 -0.456127 0.000000 0.274997 -0.033765 12.546454 16.725596 -3.555448 -0.000000 0.215540 -0.003762 -2.238621 0.000007 0.000004 0.000000 0.274996 -0.033765 -0.045797 -0.000145 -0.372497 0.180307 0.000000 0.000000 7.593325 10.656226 -71.549107 0.298295 0.001098 -0.000132 -21.883129 -40.268019 -56.885825 0.000000 0.274996 -0.033765 -0.052438 -0.000190 -0.426815 -0.180307 0.000000 0.000000 10.030943 -13.704827 72.911668 -0.295075 0.001098 -0.000132 -21.789700 39.841781 57.288621 -0.000000 0.000000 -0.000000 0.000044 0.000002 -3.252842 0.000000 0.000000 -0.000000 0.000000 -0.000000 -3.252812 0.105762 -0.006011 -0.000000 7.588635 0.105589 -4.407947 0.022250 -0.424548 0.000000 -1.047909 -0.075560 2.248546 0.021374 -0.407838 0.000000 -8.726911 13.165203 7.565316 -0.105762 0.006011 0.000000 5.924850 -0.397694 -1.673315 -0.022137 -0.422396 0.000000 2.787302 -0.209437 -2.592315 -0.022337 -0.426218 0.000000 -9.659988 -10.118749 -6.227970 
0.048011 -0.015322 0.040904 -0.000000 0.075533 -0.000000 -0.000000 0.000000 0.000000 -7.930496 0.388528 -3.179517 10.014134 3.631361 -0.446477 -0.000000 0.274997 -0.033765 12.506413 16.783161 -3.583466 -0.000000 0.215541 -0.003762 -2.205311 0.000016 0.000003 -0.000000 0.274997 -0.033765 -0.046824 -0.000157 -0.381810 0.180307 0.000000 0.000000 7.624561 10.699064 -71.552570 0.298295 0.001098 -0.000132 -21.844845 -40.265454 -56.802585 -0.000000 0.274997 -0.033765 -0.053568 -0.000204 -0.436126 -0.180307 -0.000000 -0.000000 10.016315 -13.683334 72.918430 -0.295075 0.001098 -0.000132 -21.802135 39.871864 57.275009 0.000000 -0.000000 -0.000000 -0.000083 -0.000003 -3.232434 0.000000 0.000000 -0.000000 0.000000 -0.000000 -3.232435 0.105765 -0.005973 -0.000000 7.566020 0.105670 -4.401911 0.022250 -0.424548 0.000000 -1.050365 -0.075724 2.247067 0.021374 -0.407838 0.000000 -8.705979 13.108702 7.531660 -0.105765 0.005973 -0.000000 5.935997 -0.398147 -1.667687 -0.022137 -0.422396 0.000000 2.764867 -0.207594 -2.585835 -0.022337 -0.426218 0.000000 -9.631894 -10.175619 -6.251191 
0.048033 -0.015291 0.040702 -0.000000 0.111018 -0.000000 -0.000000 -0.000000 0.000000 -7.911744 0.387855 -3.178314 10.013695 3.567377 -0.438585 -0.000000 0.274997 -0.033765 12.473840 16.862622 -3.614902 0.000000 0.215541 -0.003762 -2.174776 -0.000017 -0.000004 -0.000000 0.274996 -0.033765 -0.049426 -0.000177 -0.402527 0.180307 0.000000 0.000000 7.662484 10.757030 -71.526315 0.298295 0.001098 -0.000132 -21.820134 -40.271939 -56.737647 -0.000000 0.274996 -0.033765 -0.056090 -0.000222 -0.456811 -0.180307 -0.000000 0.000000 10.051727 -13.720258 72.963311 -0.295075 0.001098 -0.000132 -21.853995 39.932028 57.309378 -0.000000 0.000000 0.000000 0.000077 0.000002 -3.220939 0.000000 0.000000 0.000000 0.000000 -0.000000 -3.220940 0.105766 -0.005952 -0.000000 7.552296 0.105743 -4.397890 0.022250 -0.424548 0.000000 -1.052893 -0.075878 2.243934 0.021374 -0.407838 0.000000 -8.696459 13.081019 7.515357 -0.105766 0.005952 0.000000 5.943657 -0.398627 -1.667026 -0.022137 -0.422396 0.000000 2.740303 -0.205672 -2.582809 -0.022337 -0.426218 0.000000 -9.601546 -10.202955 -6.258687 
0.048069 -0.015227 0.040525 -0.000000 0.125890 -0.000000 0.000000 0.000000 0.000000 -7.896748 0.386913 -3.174059 10.013168 3.511400 -0.431706 0.000000 0.274997 -0.033765 12.442439 16.970725 -3.651748 -0.000000 0.215541 -0.003762 -2.154420 -0.000010 0.000002 0.000000 0.274997 -0.033765 -0.053295 -0.000201 -0.433098 0.180307 0.000000 0.000000 7.699648 10.817993 -71.479576 0.298295 0.001098 -0.000132 -21.796901 -40.286454 -56.664988 0.000000 0.274997 -0.033765 -0.059916 -0.000257 -0.487385 -0.180306 0.000000 0.000000 10.161891 -13.845957 73.056701 -0.295075 0.001098 -0.000132 -21.951634 40.016463 57.413908 -0.000000 0.000000 0.000000 0.000054 0.000001 -3.223912 0.000000 0.000000 0.000000 0.000000 -0.000000 -3.223912 0.105765 -0.005958 -0.000000 7.539287 0.105495 -4.398876 0.022250 -0.424548 0.000000 -1.048609 -0.075573 2.244245 0.021374 -0.407838 0.000000 -8.691709 13.072855 7.510075 -0.105765 0.005957 0.000000 5.945914 -0.399009 -1.671399 -0.022137 -0.422396 0.000000 2.719135 -0.203969 -2.577879 -0.022337 -0.426218 0.000000 -9.565217 -10.211638 -6.255275 
0.048111 -0.015139 0.040356 -0.000000 0.142218 -0.000000 -0.000000 -0.000000 0.000000 -7.881271 0.386149 -3.171352 10.012920 3.459217 -0.425228 0.000000 0.274997 -0.033765 12.408229 17.087180 -3.684838 -0.000000 0.215540 -0.003762 -2.146634 -0.000002 0.000002 -0.000000 0.274997 -0.033765 -0.057452 -0.000229 -0.468252 0.180307 0.000000 0.000000 7.725646 10.865130 -71.424818 0.298295 0.001098 -0.000132 -21.763240 -40.303177 -56.565649 -0.000000 0.274997 -0.033765 -0.064179 -0.000289 -0.522528 -0.180306 -0.000000 0.000000 10.313261 -14.019718 73.178251 -0.295075 0.001098 -0.000132 -22.061111 40.099955 57.545785 0.000000 -0.000000 0.000000 -0.000050 -0.000002 -3.233663 0.000000 0.000000 0.000000 0.000000 -0.000000 -3.233665 0.105765 -0.005975 0.000000 7.523314 0.105088 -4.401668 0.022250 -0.424548 0.000000 -1.038170 -0.074820 2.244481 0.021374 -0.407838 0.000000 -8.685391 13.068296 7.506222 -0.105764 0.005975 -0.000000 5.947000 -0.399397 -1.677432 -0.022137 -0.422396 0.000000 2.700961 -0.202390 -2.568854 -0.022337 -0.426218 0.000000 -9.524782 -10.220263 -6.250930 
0.048147 -0.015048 0.040225 -0.000000 0.170906 -0.000000 -0.000000 -0.000000 0.000000 -7.871851 0.386522 -3.176627 10.012402 3.408131 -0.418999 0.000000 0.274997 -0.033765 12.369996 17.168495 -3.699281 0.000000 0.215540 -0.003762 -2.140452 0.000004 0.000005 -0.000000 0.274996 -0.033765 -0.062098 -0.000272 -0.506358 0.180307 -0.000000 -0.000000 7.731761 10.886064 -71.362377 0.298295 0.001098 -0.000132 -21.724009 -40.316592 -56.458234 -0.000000 0.274997 -0.033765 -0.068824 -0.000335 -0.560676 -0.180307 0.000000 0.000000 10.440663 -14.160298 73.300279 -0.295075 0.001098 -0.000132 -22.136199 40.165344 57.624530 0.000000 -0.000000 -0.000000 -0.000155 -0.000005 -3.236244 0.000000 0.000000 -0.000000 -0.000000 -0.000000 -3.236245 0.105764 -0.005980 0.000000 7.510316 0.105084 -4.398949 0.022250 -0.424548 0.000000 -1.030077 -0.074145 2.234267 0.021374 -0.407838 0.000000 -8.677613 13.060257 7.500261 -0.105764 0.005980 -0.000000 5.956936 -0.400262 -1.681235 -0.022137 -0.422396 0.000000 2.675565 -0.200259 -2.559134 -0.022337 -0.426218 0.000000 -9.486827 -10.241704 -6.253710 
0.048178 -0.014966 0.040169 -0.000000 0.201564 -0.000000 -0.000000 -0.000000 -0.000000 -7.880489 0.388521 -3.190995 10.011971 3.350610 -0.411885 0.000000 0.274997 -0.033765 12.326950 17.201014 -3.698397 -0.000000 0.215540 -0.003762 -2.117627 0.000011 0.000001 -0.000000 0.274997 -0.033765 -0.067473 -0.000322 -0.549153 0.180307 0.000000 -0.000000 7.717590 10.880771 -71.289492 0.298295 0.001098 -0.000132 -21.689510 -40.326755 -56.366099 -0.000000 0.274997 -0.033765 -0.074165 -0.000389 -0.603475 -0.180306 -0.000000 0.000000 10.502438 -14.216597 73.404801 -0.295075 0.001098 -0.000132 -22.163346 40.215765 57.615692 -0.000000 0.000000 -0.000000 0.000066 0.000002 -3.224202 0.000000 0.000000 -0.000000 0.000000 -0.000000 -3.224203 0.105765 -0.005958 -0.000000 7.508103 0.105682 -4.389333 0.022250 -0.424548 0.000000 -1.032592 -0.074118 2.211188 0.021374 -0.407838 0.000000 -8.672623 13.054924 7.496343 -0.105765 0.005958 -0.000000 5.981231 -0.401952 -1.682286 -0.022137 -0.422396 0.000000 2.632589 -0.196929 -2.554274 -0.022337 -0.426218 0.000000 -9.453031 -10.272044 -6.261937 
